<svg width="32" height="32" viewBox="0 0 32 32" fill="none" xmlns="http://www.w3.org/2000/svg">
<g id="chat ajuda">
<g id="&#240;&#159;&#166;&#134; icon &#34;message&#34;">
<path id="Vector" d="M23.1244 0.0964352L7.70813 0.289286C3.45324 0.342513 0.043085 3.82987 0.0962167 8.07716L0.211754 17.3131L0.231075 18.8575C0.284206 23.1048 3.78054 26.5058 8.03542 26.4526L10.3479 26.4236C10.7641 26.4184 11.3226 26.6895 11.5889 27.026L13.9398 30.0705C14.9743 31.4169 16.6392 31.3961 17.6397 30.0243L19.9137 26.9218C20.2018 26.5321 20.6613 26.2946 21.1392 26.2886L23.4517 26.2597C27.7066 26.2065 31.1167 22.7191 31.0636 18.4718L30.9287 7.69146C30.8756 3.44417 27.3793 0.0432083 23.1244 0.0964352ZM9.44296 15.7147C8.57965 15.7255 7.89265 15.0389 7.88202 14.1895C7.87139 13.34 8.55643 12.6363 9.40432 12.6257C10.2522 12.6151 10.9546 13.3015 10.9653 14.1509C10.9759 15.0004 10.3063 15.7039 9.44296 15.7147ZM15.6095 15.6375C14.7462 15.6483 14.0592 14.9618 14.0485 14.1123C14.0379 13.2629 14.7229 12.5592 15.5708 12.5486C16.4187 12.538 17.1212 13.2243 17.1318 14.0738C17.1424 14.9232 16.4728 15.6267 15.6095 15.6375ZM21.776 15.5604C20.9127 15.5712 20.2257 14.8847 20.215 14.0352C20.2044 13.1858 20.8894 12.4821 21.7373 12.4715C22.5852 12.4608 23.2877 13.1472 23.2983 13.9966C23.3089 14.8461 22.6393 15.5496 21.776 15.5604Z" fill="#292D32"/>
</g>
</g>
</svg>
